<svg width="102" height="68" viewBox="0 0 102 68" fill="none" xmlns="http://www.w3.org/2000/svg">
<path d="M57.0619 67.7566H94.4434C95.6363 67.7566 96.7781 67.3375 97.8111 66.7463C98.8443 66.1551 99.9091 65.4129 100.505 64.3887C101.101 63.3648 101.516 62.203 101.516 61.0209C101.515 59.8385 101.102 58.6771 100.505 57.6537L75.2475 14.21C74.6513 13.1861 73.9229 12.4436 72.8902 11.8525C71.8572 11.2615 70.3782 10.8422 69.1856 10.8422C67.993 10.8422 66.8507 11.2615 65.818 11.8525C64.785 12.4436 64.0566 13.1861 63.4604 14.21L57.0619 25.3235L44.2645 3.76926C43.6679 2.7456 42.9404 1.6669 41.9072 1.07597C40.874 0.48479 39.7324 0.402344 38.5396 0.402344C37.3467 0.402344 36.2049 0.48479 35.1717 1.07597C34.1387 1.6669 33.0743 2.7456 32.4777 3.76926L1.15793 57.6537C0.560818 58.6771 0.484902 59.8385 0.484378 61.0209C0.483853 62.203 0.561723 63.3646 1.15793 64.3887C1.75413 65.4126 2.81903 66.1551 3.85208 66.7463C4.88515 67.3375 6.02687 67.7566 7.2198 67.7566H30.7938C40.1346 67.7566 46.9335 63.5664 51.6736 55.6328L63.1238 35.7633L69.1856 25.3235L87.7079 56.9798H63.1238L57.0619 67.7566ZM30.4571 56.9798H13.9551L38.5396 14.5467L51 35.7633L42.7462 50.1517C39.5985 55.2992 36.0095 56.9798 30.4571 56.9798Z" fill="black"/>
</svg>
