<?xml version="1.0" encoding="utf-8"?>
<!-- Generator: $$$/GeneralStr/196=Adobe Illustrator 27.6.0, SVG Export Plug-In . SVG Version: 6.00 Build 0)  -->
<svg version="1.1" id="Layer_1" xmlns="http://www.w3.org/2000/svg" xmlns:xlink="http://www.w3.org/1999/xlink" x="0px" y="0px"
	 viewBox="0 0 1920 1024" style="enable-background:new 0 0 1920 1024;" xml:space="preserve">
<style type="text/css">
	.st0{fill:#BB2649;}
</style>
<path class="st0" d="M1028.1,775.1c-14,11-27.3,22.5-41.7,32.4c-25.7,17.4-59.7,16.8-85-1.2c-25-17.7-48.4-37.5-72.4-56.6
	c-25-19.8-50-39.9-74.8-59.9c-24.6-19.9-49.1-39.9-73.7-59.9c-11-8.9-22-17.8-33.1-26.6c-15.3-12.2-23-28.7-26.6-47.3
	c-3.3-17.2-1.2-34,5.2-50.4c14-36,27.9-72,42-108c7.4-18.8,18.7-34.7,34.7-47.3c30.2-23.9,60-48.1,89.9-72.3
	c29.5-23.9,58.9-47.9,88.5-71.7c9.8-7.9,19.5-16.4,31.1-21.6c30.8-13.7,59.6-9.6,85.5,11.5c31.4,25.5,62.6,51.3,94,76.8
	c27.4,22.3,54.3,45.1,81.7,67.3c14.6,11.8,28.8,23.8,37.4,40.9c6,11.9,10.6,24.4,15.3,36.8c11.1,29.6,22.2,59.2,33.3,88.7
	c12.7,33.9,6.9,64.7-16.1,92.3c-6.3,7.6-14.7,13-22.3,19.3c-28.7,23.5-57.6,46.9-86.4,70.3C1099.3,717.5,1063.8,746.2,1028.1,775.1
	 M1170.2,363.3c-18.3-15-36.6-30-54.9-45c-42.9-35.2-85.8-70.3-128.6-105.6c-17.8-14.7-37.6-19.3-59.7-12.3c-12.5,4-22,12.9-32,20.8
	c-31.1,24.6-61.9,49.4-92.8,74.2c-31.2,25-62.3,50-93.3,75.2c-9.1,7.4-15.4,17-18.4,28.5c-4.4,16.7-6.3,33.6-2,50.6
	c2.8,11.5,7.8,21.9,17.4,29.5c11.9,9.4,23.6,19,35.4,28.5c24.9,20,49.9,39.9,74.8,59.9c22.9,18.3,45.9,36.4,68.5,55
	c16.2,13.3,32.8,24.9,54.7,26c20.9,1.1,39.9-3.7,56.4-17.2c19.9-16.2,39.9-32.2,59.9-48.2c19.2-15.4,38.6-30.6,57.9-46
	c19.7-15.7,39.2-31.5,58.9-47.2c9.8-7.9,18.7-16.4,23.5-28.5c5.1-13,5.1-26.6,4.7-40.3c-0.3-11.2-3-21.9-7.7-32.1
	C1187.9,378.6,1179.6,370.9,1170.2,363.3 M1003,755.4c15.1-12.3,30.1-24.8,45.3-37c31.9-25.6,64.1-51.1,95.9-76.8
	c28.3-22.8,56.1-46.1,84.5-68.7c15.3-12.2,23.3-33.6,16.3-52.6c-5.6-15.3-11.1-30.7-16.7-46c-4.5-12.5-9.1-24.9-14-38.1
	c-0.2,1.9-0.4,3-0.5,4.1c-0.2,1.2-0.4,2.3-0.5,3.5c-2.2,20.3-9.7,37.9-26,51.1c-12.2,9.8-24.4,19.6-36.7,29.3
	c-29.8,23.8-59.8,47.4-89.3,71.5c-13.2,10.8-27.4,20.7-40.2,32c-10.8,9.6-22.5,18.3-35.5,24.7c-14.8,7.3-30.7,11.1-47.2,10.3
	c-3.8-0.2-7.5-0.8-11.2-1.6c-13.6-2.9-26.1-9.4-37.1-18c-26.8-20.9-53.3-42.2-79.8-63.5c-36.8-29.7-73.9-59-110.9-88.6
	c-12.5-10-20.5-23.1-24-38.7c-1.2-5.5-2-11-3.1-17.8c-1.3,3.3-2,5.3-2.8,7.3c-9.5,24.9-19.2,49.7-28.3,74.7
	c-7.1,19.6-2.6,40.7,15.6,55c32.6,25.6,65,51.6,97.3,77.5c22.5,18,44.8,36.3,67.2,54.3c21.3,17.1,42.6,34.2,64,51.1
	c15.7,12.5,33.2,20.5,53.8,21.3C962.9,776.8,984.1,771.3,1003,755.4z"/>
<path class="st0" d="M795.4,394.7c2.5-3.9,5.9-6.4,9.4-8.6c34.3-21.8,67.7-44.8,101.4-67.6c10.1-6.8,19.8-14.1,30.8-19.4
	c12.8-6.1,30-2.1,38.4,8.9c5.1,6.7,6.2,14.2,3.9,22.2c-2.1,7.3-6.1,13.7-9.5,20.3c-19.2,37.3-38.4,74.6-57.7,111.9
	c-2.7,5.2-5,10.6-9.6,14.4c-10.5,8.8-25.6,3.8-28.6-9.5c-1-4.7,0.5-8.9,2.5-12.9c4.1-8.2,8.2-16.4,12.4-24.5
	c1.7-3.3,1.4-5.8-1.7-8.1c-10.3-7.6-20.6-15.3-30.8-23c-3.2-2.4-6-1-8.7,0.8c-8.4,5.5-16.6,11.1-25,16.5c-5,3.2-10.5,5.1-16.6,3.7
	C795.3,417.2,789.4,405.7,795.4,394.7 M896.1,384.3c2.7,1.9,5.5,3.7,8.1,5.8c3,2.3,5,1.5,6.6-1.8c4.4-8.9,9-17.8,13.5-26.7
	c3.1-6,6.1-12,9.2-18c-0.4-0.3-0.7-0.7-1.1-1c-16.2,10.5-33,20.1-49.1,32.4C888.1,378.5,891.8,381.2,896.1,384.3z"/>
<path class="st0" d="M1094.3,405.1c3,9.8,0.8,16.6-7.5,22.4c-24.4,17-48.9,34-73.4,51c-14.3,10-28.6,20.1-42.9,30.2
	c-5.9,4.2-12.1,7.7-19.3,8.9c-11.1,1.9-27.4-3.9-30.1-17.8c-1.3-6.9,0-13.4,3.1-19.3c21.4-41.6,42.8-83.2,64.4-124.7
	c6.1-11.7,17.7-16,27.4-10.5c8.6,4.8,10.9,15,5.2,25.3c-15.6,28.5-30.4,57.4-45.4,86.2c-1.4,2.7-3.2,5.4-4,9.6
	c7.6-3.5,13.1-8.3,19-12.4c19.2-13.4,38.3-27.1,57.5-40.7c6.9-4.9,13.6-10.1,20.7-14.8C1078.1,392.6,1088.7,395.3,1094.3,405.1z"/>
</svg>
