<svg width="353" height="219" viewBox="0 0 353 219" fill="none" xmlns="http://www.w3.org/2000/svg">
<rect width="353" height="219" fill="white"/>
<g clip-path="url(#clip0_138_2)">
<path d="M17 121.282C17 118.457 18.7327 116.533 21.7492 116.533C25.1517 116.533 26.4355 118.843 27.9108 121.925C29.452 125.328 30.9902 128.279 36.0625 128.279C40.4915 128.279 43.2506 125.902 43.2506 122.503C43.2506 118.074 38.3728 116.213 32.5971 114.16C25.3461 111.4 17.9007 108.384 17.9007 99.7205C17.9007 91.7603 24.2539 86.9482 35.4221 86.9482C46.5902 86.9482 51.5968 91.4401 51.5968 96.4466C51.5968 99.7205 49.2207 100.618 47.1049 100.618C43.7024 100.618 42.7417 98.5653 41.6495 95.9977C40.3657 92.9183 39.2105 90.6052 34.7187 90.6052C30.4842 90.6052 28.171 92.8526 28.171 95.932C28.171 100.232 32.9202 102.028 38.9532 104.338C45.9498 107.034 53.4581 110.18 53.4581 118.714C53.4581 127.249 46.5273 131.873 35.1676 131.873C24.4483 131.873 17.0057 127.381 17.0057 121.282H17Z" fill="#FED442"/>
<path d="M56.8548 130.203C56.8548 129.239 57.4324 128.79 58.01 128.341C58.7162 127.827 59.228 127.315 59.228 126.288V92.721C59.228 91.5658 58.6504 91.0512 58.01 90.6023C57.4324 90.1534 56.8548 89.7045 56.8548 88.678C56.8548 87.7144 57.624 86.9453 58.6504 86.9453H67.4426C68.918 86.9453 69.8815 87.9089 69.8815 89.4471V103.823C72.6407 100.487 76.555 98.4966 80.9211 98.4966C86.7625 98.4966 90.997 102.028 90.997 108.252V126.288C90.997 127.315 91.5117 127.83 92.215 128.341C92.7926 128.79 93.3702 129.239 93.3702 130.203C93.3702 131.166 92.601 131.873 91.5088 131.873H79.7631C78.6708 131.873 77.9675 131.166 77.9675 130.203C77.9675 129.239 78.545 128.79 79.1226 128.341C79.7631 127.827 80.3406 127.315 80.3406 126.288V108.575C80.3406 105.879 78.4164 104.018 75.7201 104.018C73.3469 104.018 71.2911 105.43 69.8787 107.675V126.288C69.8787 127.315 70.4562 127.83 71.0967 128.341C71.6743 128.79 72.2518 129.239 72.2518 130.203C72.2518 131.166 71.5456 131.873 70.4562 131.873H58.7105C57.6183 131.873 56.8491 131.166 56.8491 130.203H56.8548Z" fill="#FED442"/>
<path d="M96.1322 130.203C96.1322 129.239 96.7098 128.79 97.2874 128.341C97.9936 127.827 98.5054 127.315 98.5054 126.288V104.916C98.5054 103.76 97.9278 103.246 97.2874 102.797C96.7098 102.348 96.1322 101.899 96.1322 100.873C96.1322 99.9091 96.9014 99.14 97.9278 99.14H106.72C108.195 99.14 109.159 100.104 109.159 101.642V126.288C109.159 127.315 109.736 127.83 110.377 128.341C110.955 128.79 111.532 129.239 111.532 130.203C111.532 131.166 110.826 131.873 109.736 131.873H97.9907C96.8985 131.873 96.1294 131.166 96.1294 130.203H96.1322ZM106.563 78.6507C108.233 80.5521 110.343 81.8559 112.639 82.5535C110.488 83.1454 108.418 84.2348 106.606 85.8245C104.638 87.5486 103.452 93.8475 102.603 96.1006C102.248 93.6216 100.981 87.054 99.2402 85.0697C97.4246 83.0024 95.0886 81.6414 92.561 80.9981C94.9742 80.4663 97.3159 79.3169 99.3374 77.5441C101.202 75.9087 102.76 70.1187 103.621 68C103.972 70.479 104.821 76.6664 106.563 78.6507ZM113.877 92.5237C114.646 93.4015 115.621 94.0019 116.679 94.325C115.687 94.5966 114.732 95.0999 113.894 95.8347C112.987 96.6296 112.438 99.5374 112.047 100.575C111.884 99.4316 111.3 96.4008 110.494 95.4859C109.656 94.5309 108.578 93.9047 107.412 93.6073C108.524 93.3614 109.605 92.8325 110.537 92.0147C111.398 91.2599 112.115 88.5894 112.513 87.6115C112.676 88.7552 113.067 91.6116 113.871 92.5265H113.877V92.5237Z" fill="#FED442"/>
<path d="M114.617 130.203C114.617 129.239 115.195 128.79 115.772 128.341C116.479 127.827 116.99 127.315 116.99 126.288V104.916C116.99 103.76 116.413 103.246 115.772 102.797C115.195 102.348 114.617 101.899 114.617 100.873C114.617 99.909 115.386 99.1399 116.413 99.1399H125.205C126.68 99.1399 127.644 100.103 127.644 101.642V103.823C130.403 100.487 134.317 98.4966 138.683 98.4966C144.525 98.4966 148.759 102.028 148.759 108.252V126.288C148.759 127.315 149.274 127.829 149.977 128.341C150.555 128.79 151.133 129.239 151.133 130.203C151.133 131.166 150.363 131.872 149.271 131.872H137.526C136.433 131.872 135.73 131.166 135.73 130.203C135.73 129.239 136.307 128.79 136.885 128.341C137.526 127.827 138.103 127.315 138.103 126.288V108.575C138.103 105.879 136.179 104.018 133.483 104.018C131.109 104.018 129.054 105.43 127.641 107.675V126.288C127.641 127.315 128.219 127.829 128.859 128.341C129.437 128.79 130.014 129.239 130.014 130.203C130.014 131.166 129.308 131.872 128.219 131.872H116.473C115.381 131.872 114.612 131.166 114.612 130.203H114.617Z" fill="#FED442"/>
<path d="M153.958 114.863C153.958 104.658 160.825 97.856 171.159 97.856C178.861 97.856 184.251 101.513 184.251 106.843C184.251 113.453 176.165 116.084 165.512 116.404C166.858 120.833 169.746 124.747 174.819 124.747C178.221 124.747 179.954 123.143 181.3 121.988C182.198 121.219 182.842 120.767 183.482 120.767C184.188 120.767 184.766 121.216 184.766 122.566C184.766 127.186 179.31 131.872 170.838 131.872C160.763 131.872 153.96 125.133 153.96 114.863H153.958ZM164.868 113.579C172.185 113.259 174.753 110.691 174.753 106.905C174.753 103.632 173.02 101.001 170.195 101.001C166.472 101.001 164.548 105.173 164.548 109.73C164.548 110.951 164.611 112.232 164.868 113.582V113.579Z" fill="#FED442"/>
<path d="M198.625 109.345C198.625 95.8661 207.545 86.9453 221.087 86.9453C231.354 86.9453 237.839 92.2092 237.839 97.9848C237.839 101.064 236.041 103.12 232.321 103.12C227.892 103.12 226.545 100.166 225.261 97.0213C223.977 94.0705 222.565 91.0512 218.202 91.0512C212.426 91.0512 209.41 96.4437 209.41 103.566C209.41 111.909 213.773 124.167 224.812 124.167C229.69 124.167 232.321 121.599 234.053 119.675C235.146 118.52 235.978 117.814 236.878 117.814C237.842 117.814 238.225 118.649 238.225 120.061C238.225 125.708 231.294 131.87 220.769 131.87C207.611 131.87 198.627 122.949 198.627 109.342H198.625V109.345Z" fill="#FED442"/>
<path d="M241.816 130.203C241.816 129.239 242.393 128.79 242.971 128.341C243.677 127.827 244.189 127.315 244.189 126.288V104.916C244.189 103.76 243.612 103.246 242.971 102.797C242.393 102.348 241.816 101.899 241.816 100.873C241.816 99.909 242.585 99.1399 243.612 99.1399H252.404C253.879 99.1399 254.843 100.103 254.843 101.642V104.209C256.767 100.678 259.72 98.4966 263.123 98.4966C266.331 98.4966 269.156 100.358 269.156 104.081C269.156 107.226 267.166 109.536 263.958 109.536C261.776 109.536 260.555 108.381 259.723 107.034C259.146 106.199 258.568 105.559 257.799 105.559C256.773 105.559 255.617 106.522 254.848 108.638V126.288C254.848 127.315 255.555 127.764 256.389 128.278C257.03 128.664 257.865 129.113 257.865 130.203C257.865 131.166 257.096 131.872 255.941 131.872H243.683C242.591 131.872 241.822 131.166 241.822 130.203H241.816Z" fill="#FED442"/>
<path d="M270.377 114.863C270.377 104.658 277.245 97.8561 287.578 97.8561C295.281 97.8561 300.67 101.513 300.67 106.843C300.67 113.453 292.584 116.084 281.931 116.404C283.278 120.833 286.165 124.747 291.238 124.747C294.64 124.747 296.373 123.143 297.72 121.988C298.617 121.219 299.261 120.767 299.901 120.767C300.607 120.767 301.185 121.216 301.185 122.566C301.185 127.186 295.73 131.872 287.258 131.872C277.182 131.872 270.38 125.133 270.38 114.863H270.377ZM281.288 113.579C288.604 113.259 291.172 110.691 291.172 106.906C291.172 103.632 289.439 101.001 286.614 101.001C282.892 101.001 280.967 105.173 280.967 109.73C280.967 110.951 281.03 112.232 281.288 113.582V113.579ZM281.799 93.49L286.1 84.1832C286.357 83.6685 286.677 83.4141 287.192 83.4141H295.921C296.819 83.4141 296.948 84.1203 296.436 84.5692L285.591 94.0676C285.27 94.3878 284.95 94.5794 284.436 94.5794H282.703C282.062 94.5794 281.482 94.1934 281.805 93.49H281.799Z" fill="#FED442"/>
<path d="M304.199 123.272C304.199 114.992 314.212 112.424 323.902 112.298V107.421C323.902 102.671 321.654 101.002 318.832 101.002C315.687 101.002 315.11 103.12 314.598 105.365C314.083 107.804 313.571 110.243 309.849 110.243C306.832 110.243 305.357 108.51 305.357 106.134C305.357 101.705 310.749 97.8535 319.541 97.8535C328.334 97.8535 334.561 101.448 334.561 109.857V125.58C334.561 126.735 335.267 127.312 335.908 127.761C336.485 128.21 337 128.596 337 129.365C337 130.969 334.69 131.867 331.802 131.867C328.079 131.867 325.511 130.263 324.485 127.695C321.917 130.326 318.452 131.867 314.343 131.867C308.31 131.867 304.202 128.593 304.202 123.266V123.272H304.199ZM320.308 126.352C321.72 126.352 323.004 125.903 323.965 125.068L323.902 124.939V116.467C323.067 115.89 322.106 115.569 320.885 115.569C317.228 115.569 314.466 117.431 314.466 120.767C314.466 124.104 317.097 126.352 320.308 126.352Z" fill="#FED442"/>
</g>
<defs>
<clipPath id="clip0_138_2">
<rect width="320" height="63.8725" fill="white" transform="translate(17 68)"/>
</clipPath>
</defs>
</svg>
